<?xml version="1.0" standalone="no"?><!DOCTYPE svg PUBLIC "-//W3C//DTD SVG 1.1//EN" "http://www.w3.org/Graphics/SVG/1.1/DTD/svg11.dtd"><svg t="1584166005859" class="icon" viewBox="0 0 1024 1024" version="1.1" xmlns="http://www.w3.org/2000/svg" p-id="3490" xmlns:xlink="http://www.w3.org/1999/xlink" width="200" height="200"><defs><style type="text/css"></style></defs><path d="M323.2 422.4c-16 0-32 16-32 32l0 256c0 16 16 32 32 32 19.2 0 32-16 32-32l0-256C355.2 435.2 342.4 422.4 323.2 422.4z" p-id="3491"></path><path d="M483.2 294.4c-16 0-32 16-32 32l0 384c0 16 16 32 32 32 19.2 0 32-16 32-32l0-384C515.2 307.2 502.4 294.4 483.2 294.4z" p-id="3492"></path><path d="M643.2 518.4c-16 0-32 16-32 32l0 160c0 16 16 32 32 32 19.2 0 32-16 32-32l0-160C675.2 531.2 662.4 518.4 643.2 518.4z" p-id="3493"></path><path d="M803.2 358.4c-16 0-32 16-32 32l0 320c0 16 16 32 32 32 19.2 0 32-16 32-32l0-320C835.2 371.2 822.4 358.4 803.2 358.4z" p-id="3494"></path><path d="M867.2 838.4l-672 0 0-672c0-19.2-12.8-32-32-32s-32 12.8-32 32l0 672c0 35.2 28.8 64 64 64l672 0c19.2 0 32-12.8 32-32S886.4 838.4 867.2 838.4z" p-id="3495"></path></svg>