<?xml version="1.0" standalone="no"?><!DOCTYPE svg PUBLIC "-//W3C//DTD SVG 1.1//EN" "http://www.w3.org/Graphics/SVG/1.1/DTD/svg11.dtd"><svg t="1584166002609" class="icon" viewBox="0 0 1024 1024" version="1.1" xmlns="http://www.w3.org/2000/svg" p-id="3354" xmlns:xlink="http://www.w3.org/1999/xlink" width="200" height="200"><defs><style type="text/css"></style></defs><path d="M810.666667 981.333333H213.333333c-72.533333 0-128-55.466667-128-128v-298.666666c0-72.533333 55.466667-128 128-128h597.333334c72.533333 0 128 55.466667 128 128v298.666666c0 72.533333-55.466667 128-128 128zM213.333333 512c-25.6 0-42.666667 17.066667-42.666666 42.666667v298.666666c0 25.6 17.066667 42.666667 42.666666 42.666667h597.333334c25.6 0 42.666667-17.066667 42.666666-42.666667v-298.666666c0-25.6-17.066667-42.666667-42.666666-42.666667H213.333333z" p-id="3355"></path><path d="M725.333333 512c-25.6 0-42.666667-17.066667-42.666666-42.666667V298.666667c0-93.866667-76.8-170.666667-170.666667-170.666667S341.333333 204.8 341.333333 298.666667v170.666666c0 25.6-17.066667 42.666667-42.666666 42.666667s-42.666667-17.066667-42.666667-42.666667V298.666667c0-140.8 115.2-256 256-256s256 115.2 256 256v170.666666c0 25.6-17.066667 42.666667-42.666667 42.666667z" p-id="3356"></path></svg>