<?xml version="1.0" standalone="no"?><!DOCTYPE svg PUBLIC "-//W3C//DTD SVG 1.1//EN" "http://www.w3.org/Graphics/SVG/1.1/DTD/svg11.dtd"><svg t="1584165999953" class="icon" viewBox="0 0 1024 1024" version="1.1" xmlns="http://www.w3.org/2000/svg" p-id="3219" xmlns:xlink="http://www.w3.org/1999/xlink" width="200" height="200"><defs><style type="text/css"></style></defs><path d="M85.333333 535.466667v75.093333a64 64 0 0 0 18.773334 45.226667l264.106666 264.106666a64 64 0 0 0 45.226667 18.773334h32.426667a64 64 0 0 0 45.226666-18.773334l355.413334-355.413333a42.666667 42.666667 0 0 0 0-60.16l-411.733334-412.586667A21.76 21.76 0 0 0 419.413333 85.333333a21.333333 21.333333 0 0 0-14.933333 6.4l-30.293333 29.866667a21.76 21.76 0 0 0 0 30.293333l34.133333 34.133334-304.213333 304.213333A64 64 0 0 0 85.333333 535.466667z m384-288.853334L733.44 512H203.093333zM831.146667 682.666667h2.56a14.08 14.08 0 0 1 9.813333 4.266666c32 35.84 95.146667 103.253333 95.146667 145.066667a106.666667 106.666667 0 0 1-213.333334 0c0-42.666667 62.293333-108.8 94.72-144.213333a13.653333 13.653333 0 0 1 11.093334-5.12z" p-id="3220"></path></svg>