<?xml version="1.0" standalone="no"?><!DOCTYPE svg PUBLIC "-//W3C//DTD SVG 1.1//EN" "http://www.w3.org/Graphics/SVG/1.1/DTD/svg11.dtd"><svg t="1584165985630" class="icon" viewBox="0 0 1024 1024" version="1.1" xmlns="http://www.w3.org/2000/svg" p-id="2677" xmlns:xlink="http://www.w3.org/1999/xlink" width="200" height="200"><defs><style type="text/css"></style></defs><path d="M529.066667 1024c-269.653333 0-512-204.8-512-426.666667 0-228.693333 276.48-392.533333 372.053333-409.6 10.24 0 17.066667 3.413333 20.48 13.653334 0 10.24-3.413333 17.066667-13.653333 20.48-85.333333 13.653333-344.746667 170.666667-344.746667 375.466666S279.893333 989.866667 529.066667 989.866667c238.933333 0 443.733333-180.906667 443.733333-392.533334 0-208.213333-201.386667-344.746667-310.613333-358.4-6.826667 0-13.653333-10.24-13.653334-20.48s10.24-13.653333 20.48-13.653333c119.466667 17.066667 337.92 163.84 337.92 392.533333 0 232.106667-218.453333 426.666667-477.866666 426.666667z" fill="" p-id="2678"></path><path d="M529.066667 955.733333c-228.693333 0-443.733333-174.08-443.733334-358.4 0-10.24 6.826667-17.066667 17.066667-17.066666s17.066667 6.826667 17.066667 17.066666c0 167.253333 197.973333 324.266667 409.6 324.266667 10.24 0 17.066667 6.826667 17.066666 17.066667s-6.826667 17.066667-17.066666 17.066666zM525.653333 409.6c-44.373333 0-61.44-75.093333-68.266666-119.466667-23.893333 3.413333-54.613333 20.48-75.093334 30.72-34.133333 17.066667-58.026667 30.72-71.68 13.653334-13.653333-13.653333-13.653333-44.373333-3.413333-68.266667 13.653333-34.133333 61.44-95.573333 218.453333-95.573333 143.36 0 187.733333 71.68 201.386667 102.4 10.24 23.893333 13.653333 51.2 0 64.853333-17.066667 17.066667-37.546667 3.413333-64.853333-13.653333-20.48-13.653333-44.373333-27.306667-68.266667-30.72-6.826667 40.96-23.893333 116.053333-68.266667 116.053333z m-51.2-153.6c10.24 0 17.066667 6.826667 17.066667 17.066667 0 47.786667 20.48 102.4 34.133333 102.4s34.133333-54.613333 34.133334-102.4c0-10.24 6.826667-17.066667 17.066666-17.066667 37.546667 0 75.093333 20.48 102.4 37.546667 6.826667 3.413333 17.066667 10.24 23.893334 13.653333 0-6.826667-3.413333-23.893333-17.066667-40.96-17.066667-20.48-58.026667-61.44-160.426667-61.44-126.293333 0-170.666667 40.96-184.32 64.853333-10.24 17.066667-10.24 30.72-10.24 37.546667 6.826667-3.413333 23.893333-10.24 34.133334-17.066667 30.72-13.653333 71.68-34.133333 109.226666-34.133333z" fill="" p-id="2679"></path><path d="M512 204.8c-10.24 0-17.066667-6.826667-17.066667-17.066667C494.933333 75.093333 590.506667 0 682.666667 0c10.24 0 17.066667 6.826667 17.066666 17.066667s-6.826667 17.066667-17.066666 17.066666c-75.093333 0-153.6 61.44-153.6 153.6 0 10.24-6.826667 17.066667-17.066667 17.066667z" fill="" p-id="2680"></path></svg>